<svg xmlns="http://www.w3.org/2000/svg" width="16" height="16" viewBox="0 0 16 16" fill="none">
  <path fill-rule="evenodd" clip-rule="evenodd" d="M8 16C12.4183 16 16 12.4183 16 8C16 3.58172 12.4183 0 8 0C3.58172 0 0 3.58172 0 8C0 12.4183 3.58172 16 8 16ZM13.2214 5.80474C13.4818 5.54439 13.4818 5.12228 13.2214 4.86193C12.9611 4.60158 12.5389 4.60158 12.2786 4.86193L6.91667 10.2239L4.4714 7.7786C4.21106 7.51825 3.78895 7.51825 3.5286 7.7786C3.26825 8.03895 3.26825 8.46106 3.5286 8.72141L6.44526 11.6381C6.70561 11.8984 7.12772 11.8984 7.38807 11.6381L13.2214 5.80474Z" fill="#60A5FA"/>
</svg>