<svg width="24" height="24" viewBox="0 0 24 24" fill="none" xmlns="http://www.w3.org/2000/svg">
<g clip-path="url(#clip0_2034_37)">
<path d="M24 17.9999C24 18.7072 23.719 19.3854 23.219 19.8855C22.7189 20.3856 22.0406 20.6666 21.3333 20.6666H2.66667C1.95942 20.6666 1.28115 20.3856 0.781049 19.8855C0.280952 19.3854 0 18.7072 0 17.9999V5.99992C0 5.29267 0.280952 4.6144 0.781049 4.1143C1.28115 3.6142 1.95942 3.33325 2.66667 3.33325H21.3333C22.0406 3.33325 22.7189 3.6142 23.219 4.1143C23.719 4.6144 24 5.29267 24 5.99992V17.9999Z" fill="#141414"/>
<path d="M0 8.66675H24V15.3334H0V8.66675Z" fill="#EEEEEE"/>
<path d="M21.3333 3.33325H2.66667C1.95942 3.33325 1.28115 3.6142 0.781049 4.1143C0.280952 4.6144 0 5.29267 0 5.99992L0 8.66658H24V5.99992C24 5.29267 23.719 4.6144 23.219 4.1143C22.7189 3.6142 22.0406 3.33325 21.3333 3.33325Z" fill="#CE1225"/>
<path d="M9.83325 14.3748C9.83325 14.3748 9.84392 14.5414 9.98925 14.6248C9.98925 14.6248 9.94792 14.7501 10.1039 14.8228C10.2599 14.8954 10.8226 15.0101 11.8019 15.0101C12.7813 15.0101 13.3333 14.9061 13.4793 14.8328C13.6253 14.7601 13.6353 14.5934 13.6353 14.5934C13.6353 14.5934 13.7913 14.5101 13.7813 14.4061C13.7706 14.3021 13.5626 14.1874 13.5626 14.1874C13.5626 14.1874 13.5106 14.0521 13.3646 14.0001C13.2186 13.9481 12.7499 14.2294 11.8539 14.1874C10.9579 14.1461 10.4479 14.0101 10.2813 14.0208C10.1146 14.0314 10.0419 14.1981 10.0419 14.1981C10.0419 14.1981 9.85392 14.2814 9.83325 14.3748Z" fill="#BF9300"/>
<path d="M9.94791 14.3646C9.93925 14.4266 10.0732 14.5626 10.0732 14.5626C10.0732 14.5626 10.0732 14.7186 10.2086 14.7606C10.3439 14.8026 10.8959 14.9066 11.7919 14.8959C12.6879 14.8852 13.3232 14.8332 13.3959 14.7706C13.4686 14.7079 13.5312 14.5726 13.5312 14.5726C13.5312 14.5726 13.6772 14.4686 13.6666 14.3852C13.6559 14.3019 13.4479 14.2499 13.4479 14.2499C13.4479 14.2499 13.3892 14.1246 13.3199 14.0726C13.2506 14.0206 12.8026 14.2806 11.8439 14.2806C10.9059 14.2806 10.3646 14.0512 10.2712 14.0619C10.1772 14.0726 10.1152 14.2492 10.1152 14.2492C10.1152 14.2492 9.95858 14.2919 9.94791 14.3646Z" fill="#EEEEEE"/>
<path d="M13.906 10.3227C13.906 10.3227 13.8854 9.8334 13.4374 9.8954C12.9894 9.95806 12.958 10.1767 12.4787 10.2287L12.38 10.2381C12.3001 10.0213 12.2559 9.79299 12.2494 9.56206C12.2494 9.2494 12.3434 9.11406 12.02 8.95806C11.6974 8.80206 11.6347 8.9474 11.6347 8.9474C11.6347 8.9474 11.3847 8.82206 11.27 8.91606C11.1554 9.01006 11.218 9.2494 11.27 9.17673C11.322 9.10406 11.5307 9.31206 11.5307 9.31206C11.6014 9.65806 11.4007 10.0327 11.2634 10.2414C11.216 10.2367 11.178 10.2347 11.1247 10.2287C10.6454 10.1767 10.614 9.95806 10.166 9.8954C9.71802 9.83273 9.69735 10.3227 9.69735 10.3227L9.52002 14.1041L9.88469 13.8227L9.88669 13.7781L10.6454 13.1041L10.772 12.9774L10.458 13.8954C10.458 13.8954 9.97869 13.8641 10.114 14.2494C10.114 14.2494 10.1867 14.0307 10.312 14.0721C10.4374 14.1134 10.8014 14.2074 10.8014 14.2074L10.9267 14.4054L11.0827 14.2594L11.572 14.2387C11.572 14.2387 11.728 14.2801 11.718 14.4161C11.7467 14.3576 11.7554 14.2913 11.7427 14.2274L11.89 14.2174C11.8742 14.2845 11.8822 14.3549 11.9127 14.4167C11.902 14.2814 12.0587 14.2394 12.0587 14.2394L12.548 14.2601L12.7047 14.4061L12.83 14.2081C12.83 14.2081 13.194 14.1141 13.3187 14.0727C13.4434 14.0314 13.5167 14.2501 13.5167 14.2501C13.652 13.8647 13.1727 13.8961 13.1727 13.8961L12.8734 13.0207L12.9574 13.1047L13.716 13.7787L13.718 13.8234L14.0827 14.1047L13.906 10.3227ZM11.8347 12.6147C11.0834 12.1507 11.0214 10.9794 11.0214 10.9794C11.0214 10.9794 11.486 10.9554 11.8234 10.7187C12.1274 10.9887 12.646 10.9581 12.646 10.9581C12.646 10.9581 12.6107 12.1341 11.8347 12.6147ZM13.552 10.1774L12.9167 10.7814L12.81 10.8241C12.7007 10.8281 12.1687 10.8294 11.8334 10.5314C11.4167 10.8234 10.844 10.8441 10.844 10.8441L10.7554 10.8087L10.052 10.1774L9.86735 10.2534C9.87535 10.1781 9.91669 10.0087 10.146 10.0421C10.522 10.0961 10.6774 10.3027 11.0734 10.3441L11.1854 10.3554L11.146 10.4061C11.2074 10.4061 11.298 10.3881 11.3647 10.3734L11.44 10.3807L11.406 10.4994C11.4594 10.4834 11.5367 10.4374 11.6 10.3967L11.7734 10.4134L11.8127 10.4681L11.9447 10.4021L12.0334 10.3934C12.11 10.4381 12.2194 10.4781 12.2194 10.4781L12.24 10.3741C12.334 10.4367 12.49 10.4367 12.49 10.4367C12.472 10.4221 12.454 10.3847 12.4354 10.3527L12.5314 10.3427C12.9274 10.3014 13.082 10.0947 13.4587 10.0407C13.688 10.0081 13.7294 10.1767 13.7374 10.2521L13.552 10.1774Z" fill="#BF9300"/>
<path d="M11.5833 12.5941L11.2079 14.0207L10.5833 13.8961L11.2293 12.0627L11.5833 12.5941ZM12.0493 12.5941L12.4239 14.0207L13.0493 13.8961L12.4033 12.0627L12.0493 12.5941Z" fill="#EEEEEE"/>
<path d="M11.1772 11.0941C11.1772 11.0941 11.2292 11.6981 11.4999 12.1667V10.9587C11.4999 10.9587 11.3226 11.0627 11.1772 11.0941ZM12.4792 11.1147C12.4792 11.1147 12.4272 11.7187 12.1566 12.1874V10.9794C12.1559 10.9794 12.3332 11.0834 12.4792 11.1147Z" fill="#BF9300"/>
<path d="M11.302 9.0521C11.302 9.0521 11.3747 8.97944 11.5833 9.12477C11.7187 9.21944 11.8387 9.29144 11.8387 9.29144C11.8387 9.29144 11.924 9.20144 12.0493 9.2221C12.1747 9.24277 12.1047 9.41677 12.1253 9.78077C12.146 10.1454 12.292 10.3014 12.292 10.3014L12.1147 10.1974L12.1253 10.3121L11.9273 10.2181L11.8333 10.3534L11.7393 10.2074L11.5873 10.3001L11.5413 10.1761L11.364 10.2701C11.364 10.2701 11.6247 9.94744 11.6453 9.59277C11.6513 9.48677 11.6247 9.24877 11.6247 9.24877C11.6247 9.24877 11.4587 9.04144 11.302 9.0521Z" fill="#EEEEEE"/>
<path d="M10.3648 14.4372C10.2454 14.5085 10.2921 14.5519 10.3648 14.5832C10.4374 14.6145 10.8748 14.6672 11.7608 14.6872C12.6668 14.7079 13.2294 14.6039 13.3021 14.5619C13.3748 14.5205 13.3854 14.4472 13.2608 14.4265C13.1354 14.4059 12.5108 14.5099 11.7501 14.5099C10.8128 14.5105 10.4168 14.4059 10.3648 14.4372Z" fill="#BF9300"/>
</g>
<defs>
<clipPath id="clip0_2034_37">
<rect width="24" height="24" fill="white"/>
</clipPath>
</defs>
</svg>
