<svg width="80" height="40" viewBox="0 0 97 56" fill="none" xmlns="http://www.w3.org/2000/svg">
<rect width="97" height="56" rx="8" fill="#D9D9D9"/>
<g clip-path="url(#clip0_2012_455)">
<path fill-rule="evenodd" clip-rule="evenodd" d="M49 20C49.855 20 50.732 20.022 51.582 20.058L52.586 20.106L53.547 20.163L54.447 20.224L55.269 20.288C56.1612 20.3559 57.0008 20.7364 57.64 21.3626C58.2791 21.9888 58.6768 22.8204 58.763 23.711L58.803 24.136L58.878 25.046C58.948 25.989 59 27.017 59 28C59 28.983 58.948 30.011 58.878 30.954L58.803 31.864L58.763 32.289C58.6768 33.1798 58.2789 34.0115 57.6396 34.6377C57.0002 35.2639 56.1604 35.6443 55.268 35.712L54.448 35.775L53.548 35.837L52.586 35.894L51.582 35.942C50.7218 35.9793 49.861 35.9986 49 36C48.139 35.9986 47.2782 35.9793 46.418 35.942L45.414 35.894L44.453 35.837L43.553 35.775L42.731 35.712C41.8388 35.6441 40.9992 35.2636 40.36 34.6374C39.7209 34.0112 39.3232 33.1796 39.237 32.289L39.197 31.864L39.122 30.954C39.0458 29.9711 39.0051 28.9858 39 28C39 27.017 39.052 25.989 39.122 25.046L39.197 24.136L39.237 23.711C39.3232 22.8206 39.7207 21.9891 40.3597 21.3629C40.9986 20.7368 41.838 20.3561 42.73 20.288L43.551 20.224L44.451 20.163L45.413 20.106L46.417 20.058C47.2775 20.0207 48.1387 20.0014 49 20ZM47 25.575V30.425C47 30.887 47.5 31.175 47.9 30.945L52.1 28.52C52.1914 28.4674 52.2673 28.3916 52.3201 28.3003C52.3729 28.209 52.4007 28.1055 52.4007 28C52.4007 27.8945 52.3729 27.791 52.3201 27.6997C52.2673 27.6084 52.1914 27.5326 52.1 27.48L47.9 25.056C47.8088 25.0033 47.7053 24.9756 47.5999 24.9756C47.4945 24.9756 47.3911 25.0034 47.2998 25.0561C47.2086 25.1088 47.1329 25.1846 47.0802 25.2759C47.0276 25.3671 46.9999 25.4706 47 25.576V25.575Z" fill="#DC2626"/>
</g>
<defs>
<clipPath id="clip0_2012_455">
<rect width="24" height="24" fill="white" transform="translate(37 16)"/>
</clipPath>
</defs>
</svg>
