<svg width="214" height="49" viewBox="0 0 214 49" fill="none" xmlns="http://www.w3.org/2000/svg">
<path d="M119.862 31.2276L98.5435 44.5876V17.0161L119.862 4.06641V31.2276Z" fill="#FFC700"/>
<path d="M77.231 31.2276L98.5494 44.5876V17.0161L77.231 4.06641V31.2276Z" fill="#0655CB"/>
<path d="M98.5435 44.5877L97.3568 43.8244L97.2619 43.7673L97.1669 43.7102L77.2487 31.2485V4.10287L75.267 2.88786L73.754 1.96362V32.1468C73.7509 32.3589 73.8059 32.5685 73.9143 32.7582C74.0226 32.9479 74.1813 33.1121 74.377 33.2372L97.2322 47.62L97.3331 47.6823C97.641 47.8779 97.9664 48.0515 98.3061 48.2016C98.376 48.2347 98.4526 48.2559 98.5316 48.2639V44.5877H98.5435Z" fill="#0044AE"/>
<path d="M90.9903 23.2626C90.3566 23.2658 89.7438 23.4609 89.2561 23.8149C88.7683 24.1688 88.4358 24.6597 88.3149 25.204C88.1941 25.7484 88.2925 26.3125 88.5934 26.8005C88.8943 27.2885 89.379 27.6702 89.9652 27.8807C90.5514 28.0912 91.2029 28.1175 91.8087 27.9551C92.4146 27.7927 92.9374 27.4516 93.2883 26.9899C93.6392 26.5282 93.7965 25.9744 93.7334 25.4226C93.6704 24.8709 93.3908 24.3553 92.9423 23.9636C92.6858 23.7399 92.3813 23.5628 92.0463 23.4425C91.7113 23.3222 91.3524 23.2611 90.9903 23.2626Z" fill="#002F77"/>
<path d="M119.868 4.09241L98.5671 17.0162V13.7398L121.025 0.239681C121.251 0.100342 121.518 0.0183603 121.794 0.00274121C122.07 -0.0128779 122.346 0.0384698 122.592 0.151144C122.837 0.263819 123.042 0.433462 123.184 0.64144C123.326 0.849419 123.4 1.08769 123.398 1.33008V1.95835L121.844 2.88259L119.868 4.09241Z" fill="#B48C0E"/>
<path d="M98.5435 44.5877L99.7301 43.8244L99.8191 43.7673L99.92 43.7102L119.844 31.2485V4.10287L121.844 2.88786L123.357 1.96362V32.1468C123.355 32.362 123.293 32.5735 123.177 32.7634C123.062 32.9532 122.895 33.1158 122.692 33.2372L99.8488 47.62L99.7479 47.6823C99.4399 47.8779 99.1145 48.0515 98.7748 48.2016C98.7049 48.2347 98.6284 48.2559 98.5494 48.2639V44.5877H98.5435Z" fill="#D9A901"/>
<path d="M106.097 23.2626C106.73 23.2645 107.344 23.4587 107.833 23.812C108.321 24.1653 108.655 24.6559 108.777 25.2002C108.899 25.7446 108.801 26.3091 108.501 26.7977C108.201 27.2862 107.716 27.6686 107.13 27.8798C106.544 28.0909 105.892 28.1177 105.286 27.9557C104.68 27.7936 104.157 27.4527 103.805 26.991C103.454 26.5292 103.296 25.9752 103.359 25.4233C103.422 24.8713 103.702 24.3554 104.15 23.9636C104.406 23.7403 104.71 23.5634 105.044 23.4431C105.378 23.3228 105.735 23.2615 106.097 23.2626Z" fill="#B48C0E"/>
<path d="M77.2309 4.09243L98.5137 17.0162V13.7398L76.0976 0.239703C75.8705 0.103109 75.6049 0.0236237 75.3298 0.00989167C75.0547 -0.00384036 74.7805 0.0487064 74.5371 0.161817C74.2949 0.274937 74.0921 0.443194 73.9501 0.648824C73.808 0.854454 73.7321 1.08983 73.7302 1.3301V1.95837L75.2432 2.88261L77.2309 4.09243Z" fill="#002F77"/>
<path d="M138.576 29.0831V26.6479C137.799 26.4837 137.001 26.4103 136.202 26.4298C134.476 26.4298 133.871 26.8193 133.871 27.8785C133.871 28.8079 134.428 29.3116 136.279 29.3116C137.06 29.3266 137.839 29.2444 138.593 29.0675M136.173 31.456C132.547 31.456 130.939 30.2981 130.939 27.8785C130.939 25.2823 132.767 24.41 135.787 24.41C136.739 24.4159 137.688 24.4819 138.629 24.6073V24.1919C138.629 22.3538 137.247 21.7256 135.128 21.7256C134.076 21.6988 133.025 21.8144 132.013 22.0682L132.571 19.8615C133.585 19.6577 134.622 19.5567 135.662 19.5603C139.341 19.5603 141.507 20.9415 141.507 24.3269C141.507 26.4039 141.507 28.5898 141.341 30.6824C139.67 31.1909 137.911 31.4404 136.143 31.4197" fill="#334155"/>
<path d="M147.452 22.0942V25.5211C147.419 26.694 147.461 27.8675 147.576 29.0363C148.235 29.2859 148.947 29.4098 149.665 29.3998C151.884 29.3998 153.023 28.3613 153.023 25.5678C153.023 22.7743 151.955 21.7307 149.89 21.7307C149.058 21.7377 148.233 21.8695 147.452 22.1201M144.515 25.5523V15.962L147.452 15.5985V20.173C148.383 19.8047 149.397 19.6271 150.419 19.6537C154.02 19.6537 156.115 21.2114 156.115 25.5419C156.115 29.8723 154.02 31.4508 149.718 31.4508C148.057 31.4579 146.407 31.2047 144.847 30.7031C144.681 29.0519 144.539 27.4007 144.539 25.5107" fill="#334155"/>
<path d="M167.987 20.0016L170.633 28.756L172.55 20.0016H175.724L172.55 31.456H169.162L166.688 23.6934L164.291 31.456H160.974L157.598 20.0016H160.82L162.819 28.756L165.335 20.0016H167.987Z" fill="#334155"/>
<path d="M183.9 29.0831V26.6479C183.124 26.4837 182.326 26.4103 181.527 26.4298C179.795 26.4298 179.195 26.8193 179.195 27.8785C179.195 28.8079 179.753 29.3116 181.604 29.3116C182.385 29.3266 183.164 29.2444 183.918 29.0676M181.48 31.456C177.854 31.456 176.24 30.2981 176.24 27.8785C176.24 25.2823 178.068 24.41 181.088 24.41C182.042 24.416 182.993 24.4819 183.936 24.6073V24.1919C183.936 22.3538 182.554 21.7256 180.435 21.7256C179.381 21.6989 178.328 21.8145 177.314 22.0683L177.872 19.8615C178.888 19.6575 179.927 19.5564 180.969 19.5604C184.642 19.5604 186.814 20.9415 186.814 24.3269C186.814 26.4039 186.814 28.5899 186.648 30.6824C184.977 31.1909 183.218 31.4404 181.45 31.4197" fill="#334155"/>
<path d="M196.977 29.0831V26.6479C196.201 26.4823 195.403 26.409 194.604 26.4298C192.872 26.4298 192.231 26.8193 192.231 27.8785C192.231 28.8079 192.824 29.3116 194.646 29.3116C195.424 29.3266 196.202 29.2444 196.954 29.0675M194.521 31.456C190.896 31.456 189.288 30.2981 189.288 27.8785C189.288 25.2823 191.115 24.41 194.129 24.41C195.085 24.4159 196.039 24.4819 196.983 24.6073V24.1919C196.983 22.3538 195.595 21.7256 193.477 21.7256C192.425 21.7014 191.374 21.817 190.362 22.0682L190.92 19.8615C191.933 19.6577 192.971 19.5567 194.011 19.5603C197.684 19.5603 199.861 20.9415 199.861 24.3269C199.861 26.4039 199.861 28.5898 199.683 30.6824C198.013 31.1913 196.254 31.4408 194.485 31.4197" fill="#334155"/>
<path d="M205.343 22.0941V25.5211C205.311 26.694 205.352 27.8675 205.468 29.0363C206.127 29.2859 206.839 29.4098 207.557 29.3998C209.77 29.3998 210.915 28.3613 210.915 25.5678C210.915 22.7743 209.841 21.7307 207.776 21.7307C206.946 21.7378 206.123 21.8695 205.343 22.1201M202.377 25.5523V15.962L205.343 15.5985V20.173C206.274 19.8051 207.289 19.6275 208.31 19.6537C211.906 19.6537 214 21.2114 214 25.5419C214 29.8723 211.906 31.4508 207.604 31.4508C205.944 31.4583 204.296 31.205 202.739 30.7031C202.561 29.0519 202.418 27.4059 202.418 25.5107" fill="#334155"/>
<path d="M58.2324 30.9887H62.006V15.5985H58.2324V30.9887Z" fill="#334155"/>
<path d="M20.5439 30.9887H24.3116V15.5985H20.5439V30.9887Z" fill="#334155"/>
<path d="M33.3004 28.0861C32.7378 28.0871 32.1875 27.942 31.7193 27.6691C31.251 27.3962 30.8858 27.0078 30.6699 26.5531C30.4541 26.0985 30.3973 25.598 30.5068 25.115C30.6162 24.6321 30.887 24.1884 31.2849 23.8403C31.6827 23.4921 32.1896 23.2552 32.7415 23.1594C33.2934 23.0636 33.8653 23.1133 34.3849 23.3021C34.9044 23.491 35.3482 23.8106 35.6601 24.2204C35.9719 24.6302 36.1377 25.1118 36.1366 25.6042C36.1373 25.9303 36.0645 26.2533 35.9223 26.5548C35.78 26.8562 35.5712 27.1301 35.3076 27.3607C35.0441 27.5913 34.7312 27.7741 34.3867 27.8986C34.0423 28.0231 33.6731 28.0868 33.3004 28.0861ZM54.0671 21.2841L51.5988 23.5636L51.9074 23.818C52.3173 24.1599 52.6009 24.6014 52.7215 25.0856C52.8422 25.5699 52.7945 26.0746 52.5845 26.5349C52.3745 26.9951 52.0118 27.3898 51.5433 27.6682C51.0747 27.9465 50.5216 28.0957 49.9553 28.0965H49.5281V28.1744H38.9905C39.4595 27.3857 39.7018 26.5088 39.6966 25.6197C39.697 24.586 39.3709 23.5722 38.7543 22.6905C38.1377 21.8087 37.2546 21.0933 36.2025 20.6232C35.1504 20.1531 33.9703 19.9467 32.7926 20.0267C31.6148 20.1067 30.4853 20.4701 29.5287 21.0766C28.5722 21.6832 27.8258 22.5093 27.3721 23.4638C26.9184 24.4183 26.775 25.4639 26.9577 26.4852C27.1405 27.5065 27.6423 28.4637 28.4077 29.2511C29.1731 30.0385 30.1723 30.6255 31.295 30.9471L26.1982 35.4125L28.6902 37.5881L35.9882 31.2223H50.5308C51.7595 31.1271 52.9306 30.7234 53.9033 30.0596C54.876 29.3958 55.6088 28.5002 56.0137 27.4806C56.4186 26.4609 56.4783 25.3606 56.1856 24.312C55.8929 23.2634 55.2602 22.3111 54.3637 21.5697L54.0671 21.2841Z" fill="#334155"/>
<path d="M3.31946 25.49C3.31946 24.8464 3.61121 24.2291 4.13068 23.7735C4.65014 23.318 5.35491 23.0613 6.09033 23.06H6.50565V19.9965H6.09033C4.45807 20.0404 2.90948 20.6387 1.77263 21.6646C0.63578 22.6905 0 24.0635 0 25.4926C0 26.9217 0.63578 28.2946 1.77263 29.3205C2.90948 30.3465 4.45807 30.9448 6.09033 30.9887H17.417V27.92H6.09033C5.35539 27.9173 4.65153 27.6602 4.1324 27.2049C3.61327 26.7496 3.32102 26.1331 3.31946 25.49Z" fill="#334155"/>
<path d="M51.3378 32.6399C50.8407 32.6379 50.354 32.7651 49.9396 33.0054C49.5252 33.2457 49.2017 33.5883 49.01 33.9898C48.8184 34.3912 48.7674 34.8334 48.8634 35.2603C48.9594 35.6872 49.198 36.0795 49.5492 36.3875C49.9003 36.6955 50.348 36.9053 50.8356 36.9903C51.3231 37.0753 51.8286 37.0317 52.2878 36.8649C52.747 36.6982 53.1392 36.4159 53.4148 36.0538C53.6904 35.6917 53.8369 35.2662 53.8357 34.8311C53.8342 34.2513 53.5707 33.6955 53.1028 33.285C52.6348 32.8746 52.0004 32.6427 51.3378 32.6399Z" fill="#334155"/>
<path d="M10.4987 32.6399C9.91987 32.6413 9.35949 32.8182 8.9129 33.1405C8.46631 33.4628 8.1611 33.9105 8.04919 34.4075C7.93729 34.9044 8.02561 35.42 8.29912 35.8664C8.57263 36.3129 9.01444 36.6626 9.54938 36.8561C10.0843 37.0496 10.6793 37.0749 11.2332 36.9277C11.7871 36.7806 12.2656 36.47 12.5873 36.049C12.909 35.6279 13.0541 35.1222 12.9978 34.6181C12.9416 34.1139 12.6874 33.6424 12.2787 33.2837C12.0451 33.0791 11.7675 32.9169 11.4621 32.8064C11.1566 32.696 10.8292 32.6394 10.4987 32.6399Z" fill="#334155"/>
</svg>
